PathFileType	4	(X/Y/Z)	C:/Users/opensim2020/Desktop/walking_exp_matlab/subject02_walking08_straight_03.trc	
DataRate	CameraRate	NumFrames	NumMarkers	Units	OrigDataRate	OrigDataStartFrame	OrigNumFrames	
100.00	100.00	9	41	mm	100.00	2309	252	
Frame#	Time	LFHD			RFHD			LBHD			RBHD			C7			T10			CLAV			STRN			RBAK			LSHO			LUPA			LELB			LFRM			LWRA			LWRB			LFIN			RSHO			RUPA			RELB			RFRM			RWRA			RWRB			RFIN			LASI			RASI			LPSI			RPSI			LTHI			LKNE			LTIB			LANK			LHEE			LTOE			RTHI			RKNE			RTIB			RANK			RHEE			RTOE			*39			*40			
		X1	Y1	Z1	X2	Y2	Z2	X3	Y3	Z3	X4	Y4	Z4	X5	Y5	Z5	X6	Y6	Z6	X7	Y7	Z7	X8	Y8	Z8	X9	Y9	Z9	X10	Y10	Z10	X11	Y11	Z11	X12	Y12	Z12	X13	Y13	Z13	X14	Y14	Z14	X15	Y15	Z15	X16	Y16	Z16	X17	Y17	Z17	X18	Y18	Z18	X19	Y19	Z19	X20	Y20	Z20	X21	Y21	Z21	X22	Y22	Z22	X23	Y23	Z23	X24	Y24	Z24	X25	Y25	Z25	X26	Y26	Z26	X27	Y27	Z27	X28	Y28	Z28	X29	Y29	Z29	X30	Y30	Z30	X31	Y31	Z31	X32	Y32	Z32	X33	Y33	Z33	X34	Y34	Z34	X35	Y35	Z35	X36	Y36	Z36	X37	Y37	Z37	X38	Y38	Z38	X39	Y39	Z39	X40	Y40	Z40	X41	Y41	Z41	

95	0.940	-1080.67017	-431.92099	1705.81274	-940.40686	-464.81339	1696.95178	-1115.02600	-567.28516	1647.89551	-979.32965	-612.09784	1638.65625	-1026.19946	-656.07709	1514.36902	-1015.02985	-714.11163	1234.09961	-1039.99365	-519.70044	1439.34937	-1023.65442	-467.59592	1270.46484	-952.15649	-715.97076	1339.54187	-1206.27966	-600.30707	1476.39160	-1283.55408	-642.20831	1280.41016	-1292.94629	-665.54523	1143.33020	-1317.10132	-684.44385	1015.78369	-1312.79773	-648.00519	879.23785	-1331.39050	-699.90961	893.42377	-1341.16248	-695.37683	826.27570	-842.41998	-571.43188	1485.57642	-750.10919	-581.69147	1295.56763	-729.73346	-548.94891	1151.01697	-720.60333	-488.88376	1044.40161	-752.69800	-410.92709	937.12787	-715.35834	-450.78314	919.35455	-720.82318	-396.67358	871.39630	-1145.57080	-459.88391	988.40222	-892.96960	-481.68399	954.28882	-1082.65393	-678.55652	1019.99554	-966.50031	-691.78583	1012.08752	-1206.43176	-454.81036	681.99500	-1171.24683	-447.04214	478.64230	-1172.15295	-472.68393	284.35251	-1132.98352	-442.55862	67.33433	-1082.73462	-479.35010	39.41784	-1133.47180	-285.19421	34.55636	-824.42255	-621.98346	659.15210	-834.90784	-658.00128	457.72040	-839.58075	-799.57312	335.63031	-879.49219	-925.34344	191.36386	-944.44659	-972.74115	174.51028	-870.57086	-867.41583	35.30659	-1016.43036	-539.59180	1789.20642			 
96	0.950	-1083.31274	-423.23682	1707.31201	-943.03656	-455.64920	1698.47412	-1117.33386	-558.61383	1649.19739	-981.47345	-603.15973	1640.02393	-1028.35815	-647.12543	1515.61060	-1017.04364	-704.57172	1235.29126	-1042.19043	-510.46329	1441.04321	-1025.99512	-457.97021	1272.27893	-954.02063	-706.47919	1340.40796	-1208.30359	-591.44720	1478.25232	-1285.97778	-632.46558	1281.86292	-1295.42334	-654.50879	1144.76526	-1319.78845	-672.70325	1017.13861	-1314.91956	-635.35101	880.58264	-1333.92859	-687.13104	894.82428	-1343.39600	-682.37024	827.27118	-844.59967	-562.50415	1487.15869	-752.68689	-574.19421	1297.38440	-732.52075	-541.93408	1152.42224	-722.96027	-483.21497	1045.18738	-755.32800	-405.98569	937.38055	-717.39038	-445.87192	920.01868	-723.07544	-392.41171	871.20117	-1148.20007	-450.57559	990.40021	-896.36823	-471.24203	955.84149	-1084.53650	-669.26385	1021.05963	-968.20721	-681.95587	1013.42871	-1208.16272	-447.84738	682.54333	-1172.89050	-443.88110	478.58606	-1172.47449	-472.10107	284.44275	-1132.94946	-442.57162	67.37105	-1082.83777	-479.45880	39.67654	-1133.30542	-284.97806	34.55853	-825.61926	-606.73907	658.15948	-834.40125	-638.30072	456.95822	-839.08148	-781.60614	337.62875	-879.56110	-911.16998	197.92062	-944.49786	-959.16821	183.63156	-873.16229	-859.56769	39.76862	-1019.07690	-530.86969	1790.71606			 
97	0.960	-1085.90674	-414.52893	1708.96167	-945.33386	-446.94885	1700.30994	-1119.57397	-549.92310	1650.53833	-982.91241	-593.49786	1641.42688	-1030.53162	-638.09778	1516.97498	-1019.00055	-695.24634	1236.63770	-1044.25989	-501.28970	1442.68835	-1028.18335	-448.59818	1274.00024	-956.03375	-697.53253	1342.03247	-1210.16016	-582.55334	1479.72778	-1288.36731	-622.39124	1283.17578	-1297.99487	-643.58093	1145.90002	-1322.10120	-660.52356	1018.10742	-1317.03601	-622.45819	881.84497	-1336.43347	-674.14063	895.72968	-1345.71985	-669.05011	828.23474	-846.71741	-553.68896	1488.82410	-755.06403	-565.63293	1298.82813	-735.35596	-535.25952	1153.66418	-725.16779	-477.49072	1046.04810	-757.10309	-400.93726	937.38318	-719.35449	-441.09955	920.57397	-724.82465	-388.07736	871.03113	-1150.68640	-441.51660	991.89386	-899.34943	-461.48181	957.32965	-1086.37378	-659.43378	1021.93719	-970.00055	-672.52765	1014.88202	-1209.64209	-442.44669	682.72571	-1174.48035	-441.21851	478.64441	-1173.41785	-471.35425	284.96881	-1132.95581	-442.62982	67.36208	-1082.86230	-479.51355	39.63965	-1133.26917	-284.88934	34.39205	-826.67828	-591.29376	657.35828	-834.17889	-618.58978	456.31616	-838.58417	-763.21674	339.91135	-880.38171	-896.34741	204.33572	-945.45569	-944.89044	192.59512	-873.57764	-849.57062	45.13516	-1021.57318	-522.47162	1792.15784			 
98	0.970	-1088.30530	-405.97446	1710.71375	-947.66620	-438.15088	1702.18835	-1121.32629	-541.12103	1651.80603	-985.29126	-585.08722	1642.70361	-1032.69775	-629.01270	1518.38306	-1020.90649	-686.01031	1238.05103	-1046.28430	-492.16516	1444.34827	-1030.15991	-439.42807	1275.64832	-958.16333	-689.12946	1343.50952	-1212.22913	-573.36133	1481.39832	-1290.42712	-612.35834	1284.31042	-1300.56299	-632.51257	1147.01746	-1324.70862	-648.33240	1019.07770	-1319.19128	-609.25183	883.12646	-1338.90149	-660.97705	896.70044	-1348.10095	-655.39807	829.13092	-848.84851	-545.05957	1490.23157	-757.27435	-558.48816	1300.34497	-738.12067	-528.98663	1154.97607	-727.43567	-471.84302	1046.58594	-758.92261	-396.09674	937.51172	-721.19067	-436.47244	921.00232	-726.43317	-384.09097	870.70599	-1153.04944	-432.57132	992.96136	-901.64441	-452.04559	958.80273	-1088.27539	-650.81537	1023.21204	-971.93561	-663.41412	1016.26733	-1210.90479	-438.03226	682.75891	-1175.97571	-438.75247	478.86020	-1174.51746	-470.05667	285.44150	-1133.02698	-442.69977	67.35537	-1082.92029	-479.59921	39.59747	-1133.24512	-284.99234	34.02613	-827.59778	-575.75800	657.13409	-834.03943	-599.43365	456.40231	-838.81122	-745.08850	342.60803	-881.94543	-880.64453	210.50691	-947.61823	-929.01440	199.82144	-872.06079	-836.93604	51.13667	-1023.94751	-514.17285	1793.83997			 
99	0.980	-1090.51624	-397.50073	1712.53943	-949.91815	-429.42480	1704.09167	-1123.51208	-532.41461	1653.31079	-986.99219	-575.86200	1644.26453	-1034.89404	-619.94598	1519.87903	-1022.85645	-676.95660	1239.48645	-1048.09070	-483.19269	1445.90979	-1031.96582	-430.37375	1277.20068	-960.35529	-680.13153	1344.97095	-1214.19946	-564.07361	1482.68896	-1293.28064	-602.00433	1285.53857	-1303.22791	-621.27393	1148.00574	-1327.51477	-636.06720	1020.07758	-1321.23608	-595.79510	884.30145	-1341.34314	-647.49689	897.46191	-1350.50183	-641.30072	829.97711	-850.72455	-536.53278	1491.72290	-759.44446	-550.50427	1301.66846	-740.73877	-522.28027	1155.75439	-729.56909	-466.99716	1047.08325	-760.15515	-390.99469	937.19177	-722.88092	-431.94080	921.40515	-727.97833	-380.43402	870.37103	-1155.10779	-423.90350	993.59814	-903.45685	-442.99472	960.21814	-1090.14392	-642.03149	1024.56897	-973.95331	-654.50507	1017.68274	-1212.16614	-433.96088	682.69366	-1177.47375	-436.24960	479.03494	-1175.76233	-468.73315	285.77939	-1133.13330	-442.77032	67.36926	-1083.05591	-479.69638	39.59467	-1133.60681	-285.09882	34.11615	-828.37469	-560.29498	657.60040	-834.12366	-579.50995	456.71005	-839.89636	-726.58667	345.69928	-884.47717	-865.01141	216.48207	-950.78253	-912.08124	204.80037	-870.63470	-821.96082	57.03227	-1026.15137	-505.68674	1795.34106			 
100	0.990	-1092.55505	-388.95062	1714.25330	-952.06824	-421.11005	1705.98108	-1125.92615	-523.93744	1654.72302	-989.24420	-567.54041	1645.87585	-1036.94617	-610.88831	1521.34094	-1024.94202	-667.92590	1240.92065	-1049.85925	-474.24420	1447.39392	-1033.66760	-421.47479	1278.62317	-962.50403	-671.11810	1346.46936	-1216.25806	-554.50171	1484.12988	-1295.73840	-591.57782	1286.57666	-1305.88318	-609.98700	1148.90161	-1329.81970	-623.34314	1020.64935	-1323.27771	-582.05383	885.47607	-1343.74121	-633.72272	898.09619	-1352.96924	-626.81781	830.74670	-852.56506	-528.45258	1493.10095	-761.44916	-543.09601	1302.85107	-743.24890	-515.78662	1157.05078	-731.24469	-460.99081	1047.87769	-760.90369	-385.95517	936.86395	-724.57391	-427.59689	921.63660	-729.20502	-375.96075	869.82684	-1157.13733	-415.24612	993.90338	-904.79962	-434.21939	961.68921	-1092.04797	-633.35870	1026.00757	-975.96503	-645.99304	1019.23248	-1213.45715	-430.17880	682.59955	-1178.77112	-433.59955	479.06189	-1176.88245	-467.53775	285.96356	-1133.23523	-442.85364	67.31812	-1083.17468	-479.86609	39.59353	-1133.72729	-285.21521	34.06737	-829.14526	-544.73236	658.57391	-834.70587	-559.69067	457.74521	-841.50568	-707.98865	348.80377	-887.35083	-847.27246	220.98306	-954.47742	-894.50635	207.97337	-868.70734	-805.15314	62.47019	-1028.46313	-497.46143	1796.72974			 
101	1.000	-1094.40344	-380.45209	1715.96448	-953.94562	-412.69870	1707.67957	-1127.62805	-515.20947	1655.86194	-990.90002	-558.31287	1647.08032	-1038.98254	-601.76367	1522.63940	-1026.97522	-659.01324	1242.37329	-1051.55542	-465.33359	1448.75464	-1035.31409	-412.62817	1279.91956	-964.95923	-662.27802	1347.62842	-1218.24451	-544.98035	1485.29382	-1297.91406	-581.00208	1287.50000	-1308.54504	-598.54285	1149.87012	-1332.45020	-610.75409	1021.60535	-1325.17700	-567.95776	886.67682	-1346.14539	-619.64178	898.47583	-1355.41711	-611.91565	831.57147	-854.17719	-519.68469	1494.36060	-763.40430	-535.48010	1303.74219	-745.60748	-508.99530	1157.89539	-733.22479	-455.56558	1047.98303	-762.10150	-381.11353	936.65930	-726.13446	-423.17886	921.81073	-730.44000	-372.94867	869.42688	-1158.97302	-406.75452	993.99835	-905.88983	-425.67020	963.16327	-1093.89148	-624.59814	1027.36853	-978.05658	-637.60162	1020.69171	-1214.85828	-426.22211	682.52435	-1179.93835	-430.88235	478.98776	-1177.88611	-466.22321	286.03305	-1133.37854	-442.91776	67.25684	-1083.39294	-480.12833	39.57325	-1133.77795	-285.29843	34.01280	-829.80096	-529.39417	659.64441	-835.27612	-540.31409	459.32538	-843.40234	-689.33038	351.56638	-890.04382	-829.46155	224.72423	-957.69128	-875.79938	210.12375	-866.32983	-787.12207	67.21739	-1030.41748	-489.24835	1798.34241			 
102	1.010	-1096.20300	-371.99554	1717.62402	-955.67700	-403.78683	1709.29285	-1129.36755	-506.55655	1657.12012	-992.47974	-549.73468	1648.22375	-1040.86206	-593.03223	1524.08203	-1029.17346	-650.13263	1243.75049	-1053.19238	-456.53830	1450.09204	-1036.81921	-403.96942	1281.03943	-967.22156	-653.09088	1348.95447	-1220.22595	-535.33307	1486.68176	-1300.97778	-570.26758	1288.62891	-1311.15381	-587.03864	1150.70703	-1334.98474	-597.63135	1022.18854	-1327.14697	-553.53668	888.09143	-1348.46606	-605.13165	899.23340	-1357.87878	-596.61920	832.47034	-855.89166	-511.22348	1495.18701	-765.38202	-528.56915	1304.96472	-747.75452	-502.23398	1158.68750	-734.82404	-449.77191	1048.77332	-763.17792	-376.26886	936.43878	-727.59033	-418.93329	922.00299	-731.43622	-368.48596	868.93536	-1160.83289	-398.19492	994.03284	-906.81525	-417.21320	964.66376	-1095.71094	-616.20471	1028.67834	-980.30585	-628.86951	1021.93066	-1215.51099	-422.36496	682.61938	-1181.03601	-428.25195	478.84421	-1178.93860	-464.66891	286.06332	-1133.47473	-442.95578	67.22626	-1083.58008	-480.39063	39.59655	-1133.81335	-285.38373	33.96589	-830.33051	-514.28687	661.32300	-835.92273	-521.50153	461.26834	-845.64233	-670.69678	354.05304	-892.69513	-810.68646	227.15512	-960.90570	-856.42853	210.76299	-863.63745	-767.36774	71.31660	-1032.34570	-481.03271	1799.81555			 
103	1.020	-1097.84546	-363.44070	1719.12012	-957.27106	-395.44202	1710.83850	-1130.70374	-497.72217	1658.39294	-994.64111	-541.87469	1649.43213	-1042.78625	-584.21515	1525.35376	-1031.27795	-641.37177	1245.08728	-1054.67566	-447.77759	1451.21924	-1038.34961	-395.34964	1282.07947	-969.46014	-645.11176	1350.20398	-1222.10168	-525.69055	1487.94556	-1302.92700	-559.49072	1289.52246	-1313.72852	-575.51733	1151.54272	-1337.43420	-584.44598	1022.90710	-1328.74976	-538.93567	889.39600	-1350.63379	-590.52667	899.79730	-1360.29700	-580.86511	833.36505	-857.41461	-502.99057	1496.47571	-767.60614	-520.91986	1305.60498	-749.87811	-495.41739	1159.57898	-736.51251	-443.94196	1049.18298	-764.59741	-371.64160	936.21454	-728.92603	-414.61731	922.18896	-732.33069	-364.76544	868.49030	-1162.68970	-389.85339	994.02386	-907.74304	-409.00433	966.16412	-1097.46643	-607.89679	1029.82129	-982.21466	-621.05066	1023.51862	-1216.51563	-417.55682	682.59595	-1181.94690	-425.80298	478.69669	-1179.90088	-463.05038	286.10965	-1133.49158	-442.97028	67.15940	-1083.64844	-480.54642	39.65471	-1133.85315	-285.42197	33.93316	-830.78888	-499.25891	662.94745	-836.75800	-502.84067	463.29636	-847.79523	-652.09698	356.04849	-895.22253	-791.40430	228.47981	-963.86304	-836.58264	209.99152	-861.31232	-746.90192	74.71415	-1033.97314	-472.57605	1801.02722			 
